# xmcd
#
# Track frame offsets:
#	150
#	18967
#	34555
#	50488
#	69319
#	82611
#	102478
#	117868
#	132708
#	148157
#	168915
#	185355
#	202845
#	217575
#	231757
#	246484
#	261756
#	278118
#	291701
#	309209
#	323936
#	340845
#
# Disc length: 4751 seconds
#
# Revision: 0
# Processed by: cddbd v1.5.2PL0 Copyright (c) Steve Scherf et al.
# Submitted via: EZCDAudioConverter 2.1.7.1
#
DISCID=3d128d16
DTITLE=Ministry Of Sound - Back To Old Skool Garage Classics
DYEAR=2012
DGENRE=English
TTITLE0=Artful Dodger - Romina Johnson - Moving Too Fast
TTITLE1=DJ Luck - JJ - MC Neat - Master Blaster 2000 (Oracles Mix)
TTITLE2=Shola Ama - Imagine (Club Asylum Remix)
TTITLE3=Tina Moore - Never Gonna Let You Go (Kelly G. Bump-N-Go Mix)
TTITLE4=Shanks and Bigfoot - Sweet Like Chocolate
TTITLE5=Lain - Wookie - Battle (Vocal Mix)
TTITLE6=Doolally - Straight From The Heart
TTITLE7=Amira - My Desire (Dreem Teem Remix)
TTITLE8=Ed Case - Shelley Nelson - Something In Your Eyes (K Warren Mix)
TTITLE9=Kallaghan - N'N'G - Right Before My Eyes (Remix)
TTITLE10=Monsta Boy - Sorry (I Didn't Know) (David Howard Remix)
TTITLE11=Crissy D - Lady G - The BIS Project - Girls Like Us
TTITLE12=Jaheim - Just In Case (Dub-A-Holics Roller's Revival Mix)
TTITLE13=M-Dubs - Bump'n'Grind (Sunship Mix)
TTITLE14=Glamma Kid - Why (10' Below Mix)
TTITLE15=Try Faith and Dub Conspiracy - Freak Like Me
TTITLE16=Anita Kelsey - Sunship - Try Me Out (Let Me Lick It)
TTITLE17=Y-Tribe - Enough Is Enough
TTITLE18=Lovestation - Teardrops (Flava Mix)
TTITLE19=DJ Face - Frances James - Girls Play Too
TTITLE20=DJ Innocence - So Beautiful (Sunship Remix)
TTITLE21=Lonyo - Garage Girls (Sunship Remix)
EXTD=
EXTT0=
EXTT1=
EXTT2=
EXTT3=
EXTT4=
EXTT5=
EXTT6=
EXTT7=
EXTT8=
EXTT9=
EXTT10=
EXTT11=
EXTT12=
EXTT13=
EXTT14=
EXTT15=
EXTT16=
EXTT17=
EXTT18=
EXTT19=
EXTT20=
EXTT21=
PLAYORDER=
